static_grf.mot
version=1
nRows=27
nColumns 19
inDegrees=yes
endheader
time	1_ground_force_vx	1_ground_force_vy	1_ground_force_vz	1_ground_force_px	1_ground_force_py	1_ground_force_pz	1_ground_torque_x	1_ground_torque_y	1_ground_torque_z	2_ground_force_vx	2_ground_force_vy	2_ground_force_vz	2_ground_force_px	2_ground_force_py	2_ground_force_pz	2_ground_torque_x	2_ground_torque_y	2_ground_torque_z
            0.905000	            5.445186	          256.614116	          -21.062247	           -0.282683	            0.006218	           -0.406356	            0.019407	            0.914574	           -0.075066	           -6.778643	          219.220011	           22.935172	           -0.233399	            0.005592	           -0.683966	            0.037903	           -1.225782	           -0.128243
            0.905500	            5.399523	          256.253379	          -21.017823	           -0.282753	            0.006220	           -0.406780	            0.019743	            0.936983	           -0.076851	           -6.965358	          219.035026	           22.981523	           -0.233684	            0.005591	           -0.683843	            0.037065	           -1.165565	           -0.122293
            0.906000	            5.537618	          257.513859	          -20.691763	           -0.283368	            0.006215	           -0.405687	            0.020215	            0.940065	           -0.075536	           -6.962679	          218.298265	           23.025823	           -0.234026	            0.005587	           -0.683077	            0.037571	           -1.177936	           -0.124247
            0.906500	            5.628869	          255.532330	          -21.021484	           -0.282997	            0.006221	           -0.406909	            0.020931	            0.950177	           -0.078167	           -6.870932	          218.850691	           23.121611	           -0.233667	            0.005590	           -0.683629	            0.037581	           -1.197007	           -0.126464
            0.907000	            5.537702	          256.432462	          -20.742256	           -0.282846	            0.006218	           -0.406333	            0.020182	            0.934577	           -0.075596	           -6.870993	          218.851193	           22.980826	           -0.234008	            0.005588	           -0.683455	            0.038075	           -1.212758	           -0.127348
            0.907500	            5.307951	          256.253165	          -20.971740	           -0.283117	            0.006219	           -0.406548	            0.020554	            0.992307	           -0.081210	           -6.919111	          219.218834	           23.122945	           -0.233835	            0.005589	           -0.683451	            0.037941	           -1.202091	           -0.126795
            0.908000	            5.399784	          256.072690	          -20.926885	           -0.283009	            0.006221	           -0.406871	            0.019792	            0.938587	           -0.076704	           -6.684258	          219.036041	           22.981404	           -0.233985	            0.005589	           -0.683666	            0.038467	           -1.260528	           -0.132255
            0.908500	            5.308178	          256.252772	          -20.880028	           -0.283063	            0.006219	           -0.406537	            0.019477	            0.940254	           -0.076614	           -6.774573	          218.114436	           23.118942	           -0.233828	            0.005586	           -0.682604	            0.038123	           -1.227416	           -0.130099
            0.909000	            5.583482	          255.531535	          -20.837947	           -0.282857	            0.006222	           -0.407099	            0.020973	            0.959855	           -0.078274	           -6.682244	          218.483421	           23.026361	           -0.233573	            0.005589	           -0.683292	            0.037341	           -1.220912	           -0.128674
            0.909500	            5.445755	          256.613133	          -20.832967	           -0.283199	            0.006219	           -0.406609	            0.019439	            0.915991	           -0.074364	           -6.873611	          219.587452	           23.077311	           -0.233925	            0.005589	           -0.683620	            0.037349	           -1.193176	           -0.125396
            0.910000	            5.537474	          256.432855	          -20.833968	           -0.283220	            0.006220	           -0.406642	            0.019695	            0.912050	           -0.074100	           -6.825452	          219.219507	           23.029049	           -0.233763	            0.005589	           -0.683457	            0.036636	           -1.176657	           -0.123608
            0.910500	            5.307675	          255.893193	          -21.110854	           -0.283264	            0.006220	           -0.406786	            0.020243	            0.975949	           -0.080515	           -6.962638	          218.297931	           23.119679	           -0.233848	            0.005587	           -0.683077	            0.037750	           -1.183580	           -0.125352
            0.911000	            5.674776	          256.433275	          -20.926021	           -0.282666	            0.006220	           -0.406652	            0.021296	            0.962327	           -0.078530	           -6.778561	          219.219341	           23.122885	           -0.234187	            0.005588	           -0.683714	            0.036654	           -1.185378	           -0.125032
            0.911500	            5.492120	          256.251824	          -20.651203	           -0.283255	            0.006219	           -0.406423	            0.020184	            0.941727	           -0.075893	           -6.823376	          218.666385	           23.214790	           -0.233650	            0.005589	           -0.683328	            0.038391	           -1.230304	           -0.130616
            0.912000	            5.399133	          255.893604	          -21.202793	           -0.282804	            0.006220	           -0.406653	            0.020750	            0.983459	           -0.081487	           -6.872364	          219.219840	           22.888284	           -0.233663	            0.005590	           -0.683622	            0.038103	           -1.215442	           -0.126902
            0.912500	            5.582991	          256.974084	          -20.923475	           -0.283034	            0.006219	           -0.406557	            0.019765	            0.909761	           -0.074075	           -6.685608	          219.404490	           22.935790	           -0.233801	            0.005589	           -0.683659	            0.039146	           -1.284683	           -0.134296
            0.913000	            5.445609	          256.793565	          -20.878051	           -0.282869	            0.006218	           -0.406219	            0.019470	            0.918120	           -0.074646	           -6.868129	          218.112926	           23.447479	           -0.233584	            0.005585	           -0.682264	            0.037089	           -1.177834	           -0.126619
            0.913500	            5.445675	          256.433034	          -20.879596	           -0.282913	            0.006219	           -0.406571	            0.021130	            0.995006	           -0.081017	           -6.965920	          219.218330	           23.216821	           -0.233419	            0.005591	           -0.683626	            0.037116	           -1.168054	           -0.123705
            0.914000	            5.307756	          256.073262	          -21.064225	           -0.282515	            0.006219	           -0.406604	            0.019050	            0.919081	           -0.075602	           -6.684902	          219.220014	           23.028989	           -0.233723	            0.005590	           -0.683706	            0.038559	           -1.264470	           -0.132832
            0.914500	            5.446211	          256.612347	          -20.649544	           -0.283129	            0.006219	           -0.406579	            0.019407	            0.914407	           -0.073582	           -6.921125	          219.771454	           23.077988	           -0.233484	            0.005592	           -0.683998	            0.038309	           -1.216450	           -0.127738
            0.915000	            5.399538	          256.793949	          -20.969649	           -0.282149	            0.006217	           -0.406018	            0.018897	            0.898734	           -0.073390	           -6.967331	          219.587281	           23.030422	           -0.233418	            0.005591	           -0.683620	            0.037353	           -1.177233	           -0.123469
            0.915500	            5.628869	          255.532330	          -21.021484	           -0.282571	            0.006221	           -0.407061	            0.019927	            0.904633	           -0.074420	           -6.634065	          218.115278	           23.025027	           -0.233657	            0.005588	           -0.683124	            0.037376	           -1.228839	           -0.129721
            0.916000	            5.583482	          255.531535	          -20.837947	           -0.283289	            0.006222	           -0.407169	            0.021593	            0.988225	           -0.080587	           -6.825452	          219.219507	           23.029049	           -0.233593	            0.005590	           -0.683628	            0.036550	           -1.173901	           -0.123318
            0.916500	            5.262042	          256.613688	          -20.970080	           -0.283137	            0.006218	           -0.406265	            0.019804	            0.965790	           -0.078923	           -6.917761	          218.850355	           23.168559	           -0.233324	            0.005591	           -0.683629	            0.037673	           -1.191814	           -0.126171
            0.917000	            5.491679	          256.793181	          -20.786452	           -0.282917	            0.006219	           -0.406417	            0.020918	            0.978139	           -0.079177	           -6.917823	          218.850857	           23.027774	           -0.233158	            0.005591	           -0.683372	            0.037502	           -1.186396	           -0.124834
            0.917500	            5.583057	          256.613553	          -20.925021	           -0.282857	            0.006219	           -0.406471	            0.021509	            0.988596	           -0.080613	           -6.915726	          218.297598	           23.260444	           -0.233760	            0.005587	           -0.682992	            0.037349	           -1.178922	           -0.125619
            0.918000	            5.354624	          256.071502	          -20.651635	           -0.283626	            0.006219	           -0.406609	            0.018479	            0.883732	           -0.071271	           -6.737028	          220.692697	           23.128121	           -0.233910	            0.005592	           -0.684543	            0.036939	           -1.210056	           -0.126811
